<svg width="390" height="100" viewBox="0 0 390 100" fill="none" xmlns="http://www.w3.org/2000/svg"> 
<rect width="390" height="100" rx="30" fill="#F9F9F9"/>
<path d="M122.205 49.8182C122.205 52.0123 121.794 53.8916 120.972 55.456C120.156 57.0137 119.043 58.2069 117.631 59.0355C116.225 59.8641 114.631 60.2784 112.848 60.2784C111.065 60.2784 109.467 59.8641 108.055 59.0355C106.65 58.2003 105.536 57.0038 104.714 55.446C103.899 53.8816 103.491 52.0057 103.491 49.8182C103.491 47.6241 103.899 45.7481 104.714 44.1903C105.536 42.6259 106.65 41.4295 108.055 40.6009C109.467 39.7723 111.065 39.358 112.848 39.358C114.631 39.358 116.225 39.7723 117.631 40.6009C119.043 41.4295 120.156 42.6259 120.972 44.1903C121.794 45.7481 122.205 47.6241 122.205 49.8182ZM118.496 49.8182C118.496 48.2737 118.254 46.9711 117.77 45.9105C117.293 44.8433 116.63 44.0379 115.781 43.4943C114.933 42.9441 113.955 42.669 112.848 42.669C111.741 42.669 110.763 42.9441 109.915 43.4943C109.066 44.0379 108.4 44.8433 107.916 45.9105C107.439 46.9711 107.2 48.2737 107.2 49.8182C107.2 51.3627 107.439 52.6686 107.916 53.7358C108.4 54.7964 109.066 55.6018 109.915 56.152C110.763 56.6955 111.741 56.9673 112.848 56.9673C113.955 56.9673 114.933 56.6955 115.781 56.152C116.63 55.6018 117.293 54.7964 117.77 53.7358C118.254 52.6686 118.496 51.3627 118.496 49.8182ZM125.533 65.7273V44.7273H129.073V47.2528H129.282C129.467 46.8816 129.729 46.4872 130.067 46.0696C130.405 45.6454 130.863 45.2841 131.439 44.9858C132.016 44.6809 132.752 44.5284 133.647 44.5284C134.827 44.5284 135.891 44.83 136.838 45.4332C137.793 46.0298 138.549 46.9148 139.105 48.0881C139.669 49.2547 139.951 50.6866 139.951 52.3835C139.951 54.0606 139.676 55.4858 139.125 56.6591C138.575 57.8324 137.826 58.7273 136.878 59.3438C135.93 59.9602 134.856 60.2685 133.657 60.2685C132.782 60.2685 132.056 60.1226 131.479 59.831C130.902 59.5393 130.438 59.188 130.087 58.777C129.742 58.3594 129.474 57.965 129.282 57.5938H129.132V65.7273H125.533ZM129.063 52.3636C129.063 53.3513 129.202 54.2164 129.48 54.9588C129.766 55.7012 130.173 56.2812 130.703 56.6989C131.24 57.1098 131.89 57.3153 132.652 57.3153C133.448 57.3153 134.114 57.1032 134.651 56.679C135.188 56.2481 135.592 55.6615 135.864 54.919C136.142 54.17 136.282 53.3182 136.282 52.3636C136.282 51.4157 136.146 50.5739 135.874 49.8381C135.602 49.1023 135.198 48.5256 134.661 48.108C134.124 47.6903 133.454 47.4815 132.652 47.4815C131.883 47.4815 131.23 47.6837 130.694 48.0881C130.157 48.4924 129.749 49.0592 129.471 49.7884C129.199 50.5175 129.063 51.3759 129.063 52.3636ZM149.794 60.2983C148.263 60.2983 146.941 59.9801 145.827 59.3438C144.72 58.7008 143.868 57.7926 143.272 56.6193C142.675 55.4394 142.377 54.0507 142.377 52.4531C142.377 50.8821 142.675 49.5033 143.272 48.3168C143.875 47.1236 144.717 46.1955 145.797 45.5327C146.878 44.8632 148.147 44.5284 149.605 44.5284C150.547 44.5284 151.435 44.6809 152.27 44.9858C153.112 45.2841 153.855 45.7481 154.498 46.3778C155.147 47.0076 155.658 47.8097 156.029 48.7841C156.4 49.7519 156.586 50.9053 156.586 52.2443V53.348H144.067V50.9219H153.135C153.129 50.2325 152.98 49.6193 152.688 49.0824C152.396 48.5388 151.989 48.1113 151.465 47.7997C150.948 47.4882 150.345 47.3324 149.655 47.3324C148.919 47.3324 148.273 47.5114 147.716 47.8693C147.159 48.2206 146.725 48.6847 146.414 49.2614C146.109 49.8314 145.953 50.4579 145.946 51.1406V53.2585C145.946 54.1468 146.109 54.9091 146.434 55.5455C146.758 56.1752 147.212 56.6591 147.796 56.9972C148.379 57.3286 149.062 57.4943 149.844 57.4943C150.368 57.4943 150.842 57.4214 151.266 57.2756C151.69 57.1231 152.058 56.901 152.37 56.6094C152.681 56.3177 152.917 55.9564 153.076 55.5256L156.436 55.9034C156.224 56.7917 155.82 57.5672 155.223 58.2301C154.633 58.8864 153.878 59.3968 152.956 59.7614C152.035 60.1193 150.981 60.2983 149.794 60.2983ZM163.23 51.0511V60H159.631V44.7273H163.071V47.3224H163.25C163.601 46.4673 164.161 45.7879 164.93 45.2841C165.706 44.7803 166.664 44.5284 167.804 44.5284C168.858 44.5284 169.776 44.7538 170.558 45.2045C171.347 45.6553 171.957 46.3082 172.388 47.1634C172.825 48.0185 173.041 49.0559 173.034 50.2756V60H169.435V50.8324C169.435 49.8116 169.17 49.0128 168.639 48.4361C168.116 47.8594 167.39 47.571 166.462 47.571C165.832 47.571 165.272 47.7102 164.781 47.9886C164.297 48.2604 163.916 48.6548 163.638 49.1719C163.366 49.6889 163.23 50.3153 163.23 51.0511ZM183.638 60V44.7273H187.238V60H183.638ZM185.448 42.5597C184.878 42.5597 184.388 42.3707 183.977 41.9929C183.566 41.6084 183.36 41.1477 183.36 40.6108C183.36 40.0672 183.566 39.6065 183.977 39.2287C184.388 38.8442 184.878 38.652 185.448 38.652C186.025 38.652 186.515 38.8442 186.92 39.2287C187.331 39.6065 187.536 40.0672 187.536 40.6108C187.536 41.1477 187.331 41.6084 186.92 41.9929C186.515 42.3707 186.025 42.5597 185.448 42.5597ZM194.539 51.0511V60H190.939V44.7273H194.38V47.3224H194.559C194.91 46.4673 195.47 45.7879 196.239 45.2841C197.015 44.7803 197.972 44.5284 199.113 44.5284C200.167 44.5284 201.085 44.7538 201.867 45.2045C202.656 45.6553 203.266 46.3082 203.696 47.1634C204.134 48.0185 204.349 49.0559 204.343 50.2756V60H200.743V50.8324C200.743 49.8116 200.478 49.0128 199.948 48.4361C199.424 47.8594 198.698 47.571 197.77 47.571C197.141 47.571 196.58 47.7102 196.09 47.9886C195.606 48.2604 195.225 48.6548 194.946 49.1719C194.675 49.6889 194.539 50.3153 194.539 51.0511ZM215.106 60V39.6364H222.743C224.307 39.6364 225.619 39.928 226.68 40.5114C227.747 41.0947 228.553 41.8968 229.096 42.9176C229.646 43.9318 229.922 45.0852 229.922 46.3778C229.922 47.6837 229.646 48.8437 229.096 49.858C228.546 50.8722 227.734 51.6709 226.66 52.2543C225.586 52.831 224.264 53.1193 222.693 53.1193H217.632V50.0866H222.196C223.11 50.0866 223.859 49.9276 224.443 49.6094C225.026 49.2912 225.457 48.8537 225.735 48.2969C226.02 47.7401 226.163 47.1004 226.163 46.3778C226.163 45.6553 226.02 45.0189 225.735 44.4688C225.457 43.9186 225.023 43.491 224.433 43.1861C223.85 42.8745 223.097 42.7188 222.176 42.7188H218.795V60H215.106ZM232.967 60V44.7273H236.457V47.2727H236.616C236.894 46.3911 237.371 45.7116 238.048 45.2344C238.73 44.7505 239.509 44.5085 240.384 44.5085C240.583 44.5085 240.805 44.5185 241.05 44.5384C241.302 44.5516 241.511 44.5748 241.677 44.608V47.919C241.524 47.866 241.282 47.8196 240.951 47.7798C240.626 47.7334 240.311 47.7102 240.006 47.7102C239.35 47.7102 238.76 47.8527 238.237 48.1378C237.719 48.4162 237.312 48.804 237.013 49.3011C236.715 49.7983 236.566 50.3717 236.566 51.0213V60H232.967ZM250.101 60.2983C248.61 60.2983 247.317 59.9702 246.223 59.3139C245.13 58.6577 244.281 57.7396 243.678 56.5597C243.081 55.3797 242.783 54.0009 242.783 52.4233C242.783 50.8456 243.081 49.4635 243.678 48.277C244.281 47.0904 245.13 46.169 246.223 45.5128C247.317 44.8565 248.61 44.5284 250.101 44.5284C251.593 44.5284 252.885 44.8565 253.979 45.5128C255.073 46.169 255.918 47.0904 256.515 48.277C257.118 49.4635 257.419 50.8456 257.419 52.4233C257.419 54.0009 257.118 55.3797 256.515 56.5597C255.918 57.7396 255.073 58.6577 253.979 59.3139C252.885 59.9702 251.593 60.2983 250.101 60.2983ZM250.121 57.4148C250.93 57.4148 251.606 57.1927 252.15 56.7486C252.693 56.2978 253.097 55.6946 253.363 54.9389C253.634 54.1832 253.77 53.3414 253.77 52.4134C253.77 51.4787 253.634 50.6335 253.363 49.8778C253.097 49.1155 252.693 48.509 252.15 48.0582C251.606 47.6075 250.93 47.3821 250.121 47.3821C249.292 47.3821 248.603 47.6075 248.053 48.0582C247.509 48.509 247.102 49.1155 246.83 49.8778C246.565 50.6335 246.432 51.4787 246.432 52.4134C246.432 53.3414 246.565 54.1832 246.83 54.9389C247.102 55.6946 247.509 56.2978 248.053 56.7486C248.603 57.1927 249.292 57.4148 250.121 57.4148ZM268.101 44.7273V47.5114H259.321V44.7273H268.101ZM261.489 41.0682H265.088V55.4062C265.088 55.8902 265.161 56.2614 265.307 56.5199C265.459 56.7718 265.658 56.9441 265.903 57.0369C266.149 57.1297 266.42 57.1761 266.719 57.1761C266.944 57.1761 267.15 57.1596 267.335 57.1264C267.527 57.0933 267.673 57.0634 267.773 57.0369L268.379 59.8509C268.187 59.9171 267.912 59.9901 267.554 60.0696C267.203 60.1491 266.772 60.1955 266.261 60.2088C265.36 60.2353 264.548 60.0994 263.825 59.8011C263.103 59.4962 262.529 59.0256 262.105 58.3892C261.688 57.7528 261.482 56.9574 261.489 56.0028V41.0682ZM277.609 60.2983C276.118 60.2983 274.825 59.9702 273.731 59.3139C272.637 58.6577 271.789 57.7396 271.186 56.5597C270.589 55.3797 270.291 54.0009 270.291 52.4233C270.291 50.8456 270.589 49.4635 271.186 48.277C271.789 47.0904 272.637 46.169 273.731 45.5128C274.825 44.8565 276.118 44.5284 277.609 44.5284C279.1 44.5284 280.393 44.8565 281.487 45.5128C282.581 46.169 283.426 47.0904 284.022 48.277C284.626 49.4635 284.927 50.8456 284.927 52.4233C284.927 54.0009 284.626 55.3797 284.022 56.5597C283.426 57.7396 282.581 58.6577 281.487 59.3139C280.393 59.9702 279.1 60.2983 277.609 60.2983ZM277.629 57.4148C278.438 57.4148 279.114 57.1927 279.657 56.7486C280.201 56.2978 280.605 55.6946 280.87 54.9389C281.142 54.1832 281.278 53.3414 281.278 52.4134C281.278 51.4787 281.142 50.6335 280.87 49.8778C280.605 49.1155 280.201 48.509 279.657 48.0582C279.114 47.6075 278.438 47.3821 277.629 47.3821C276.8 47.3821 276.111 47.6075 275.561 48.0582C275.017 48.509 274.609 49.1155 274.338 49.8778C274.073 50.6335 273.94 51.4787 273.94 52.4134C273.94 53.3414 274.073 54.1832 274.338 54.9389C274.609 55.6946 275.017 56.2978 275.561 56.7486C276.111 57.1927 276.8 57.4148 277.629 57.4148ZM291.582 51.0511V60H287.982V44.7273H291.423V47.3224H291.602C291.953 46.4673 292.513 45.7879 293.282 45.2841C294.058 44.7803 295.015 44.5284 296.156 44.5284C297.21 44.5284 298.128 44.7538 298.91 45.2045C299.699 45.6553 300.308 46.3082 300.739 47.1634C301.177 48.0185 301.392 49.0559 301.386 50.2756V60H297.786V50.8324C297.786 49.8116 297.521 49.0128 296.991 48.4361C296.467 47.8594 295.741 47.571 294.813 47.571C294.183 47.571 293.623 47.7102 293.133 47.9886C292.649 48.2604 292.268 48.6548 291.989 49.1719C291.718 49.6889 291.582 50.3153 291.582 51.0511ZM315.838 39.6364V60H312.149V39.6364H315.838ZM326.733 60H319.833V39.6364H326.873C328.894 39.6364 330.631 40.044 332.083 40.8594C333.541 41.6681 334.661 42.8314 335.444 44.3494C336.226 45.8674 336.617 47.6837 336.617 49.7983C336.617 51.9195 336.222 53.7424 335.434 55.267C334.651 56.7917 333.521 57.9616 332.043 58.777C330.571 59.5923 328.801 60 326.733 60ZM323.522 56.8082H326.554C327.973 56.8082 329.156 56.5497 330.104 56.0327C331.052 55.509 331.765 54.7301 332.242 53.696C332.719 52.6553 332.958 51.3561 332.958 49.7983C332.958 48.2405 332.719 46.9479 332.242 45.9205C331.765 44.8864 331.059 44.1141 330.124 43.6037C329.196 43.0866 328.042 42.8281 326.664 42.8281H323.522V56.8082ZM340.122 60V39.6364H353.366V42.7287H343.811V48.2571H352.68V51.3494H343.811V56.9077H353.446V60H340.122Z" fill="black"/>
<path fill-rule="evenodd" clip-rule="evenodd" d="M46.0299 40.2191C45.9251 41.0785 45.8204 41.9789 45.7576 42.8792C44.1656 43.9637 42.6783 45.0686 41.2958 46.1736C40.5836 46.7465 39.8923 47.3194 39.2429 47.9128C34.1318 42.8178 31.9533 38.2343 33.3568 35.8812C34.5926 33.794 38.7402 33.2006 44.5636 34.3261C44.794 33.3439 45.0244 32.4026 45.2967 31.5023C38.2375 30.1109 32.854 31.0317 30.8221 34.4488C30.2775 35.3492 30.0052 36.3723 30.0052 37.4567V37.5591C30.0471 42.4086 34.9278 48.895 43.0763 55.0132C43.9142 55.6475 44.8149 56.2818 45.7366 56.9161C45.9042 58.9009 46.1556 60.8039 46.4698 62.5841C46.6164 63.3821 46.763 64.1597 46.9306 64.9168C39.8714 66.697 34.7393 66.2468 33.3358 63.8937C32.0999 61.8066 33.65 57.9802 37.5462 53.6217L35.5143 51.5346C30.6964 56.8547 28.7693 61.9089 30.8012 65.3465C32.2256 67.761 35.3049 68.9069 39.4524 68.9069C43.6209 68.9069 48.8578 67.7405 54.5973 65.4693C54.744 65.4079 54.8906 65.3465 55.0582 65.2851C56.0637 64.8759 57.0691 64.4462 58.0955 63.9755C58.1374 63.9551 58.1793 63.9346 58.2212 63.9141C60.0436 64.7326 61.8451 65.4693 63.6256 66.1036C64.4007 66.39 65.1757 66.6356 65.9298 66.8811C63.9817 73.7564 61.0072 77.8897 58.2212 77.8897C55.7494 77.8897 53.131 74.6567 51.2248 69.132C50.2612 69.4594 49.3186 69.7458 48.376 69.9914C50.6802 76.662 54.1784 80.7544 58.2212 80.7544C64.1074 80.7544 68.7996 72.1194 70.4126 59.5353C70.5173 58.6759 70.6011 57.7755 70.6849 56.8957C72.3397 55.7703 73.8898 54.6039 75.3352 53.4171C75.419 53.3557 75.5028 53.2944 75.5866 53.2125C76.1312 52.7623 76.6549 52.3122 77.1786 51.8415C82.3106 56.9161 84.4892 61.5201 83.0857 63.8732C81.9336 65.8171 78.1421 66.4719 72.9472 65.633C72.5911 65.5716 72.2559 65.5102 71.8998 65.4488C71.6694 66.4105 71.439 67.3313 71.1667 68.2316C71.6066 68.3135 72.0465 68.3953 72.4654 68.4567C74.1202 68.7227 75.6494 68.866 77.0529 68.866C81.2633 68.866 84.2588 67.6587 85.6413 65.326C87.4846 62.2158 86.144 57.6937 81.8498 52.6191C79.6294 49.9795 76.7387 47.3194 73.3871 44.7822C72.5282 44.1274 71.6275 43.493 70.7268 42.8587C70.5592 40.8739 70.3078 38.9709 69.9727 37.1703C69.826 36.3723 69.6794 35.5947 69.5118 34.8376C70.7058 34.5307 71.8579 34.2851 72.9681 34.101C78.1631 33.262 81.9545 33.9168 83.1066 35.8607C84.3216 37.9069 82.8343 41.6515 79.0638 45.928C79.797 46.6237 80.4673 47.3194 81.0957 47.9947C81.368 47.7082 81.6194 47.4013 81.8498 47.1148C86.1231 42.0402 87.4846 37.5181 85.6413 34.4079C83.7979 31.2977 79.1267 30.1723 72.4864 31.2568C69.4071 31.7478 66.0346 32.7096 62.5364 34.0191C62.3897 34.0805 62.2641 34.1214 62.1174 34.1828C60.9444 34.633 59.7713 35.1241 58.5983 35.6561C58.4935 35.697 58.3888 35.7584 58.2841 35.7993C56.4407 34.9604 54.6183 34.2033 52.8587 33.569C52.0837 33.2825 51.3086 33.0369 50.5545 32.7914C52.5026 25.9366 55.4771 21.8033 58.2631 21.8033C60.7349 21.8033 63.3743 25.0568 65.2805 30.5815C66.244 30.2746 67.1867 29.9881 68.1293 29.7221C65.7623 23.1129 62.2641 19 58.2003 19C52.335 19 47.6219 27.635 46.0299 40.2191ZM64.7568 39.1756C64.7149 39.1346 64.6521 39.1142 64.6102 39.0937C63.6256 38.5412 62.6202 38.0092 61.6566 37.4977C61.7404 37.4567 61.8242 37.4158 61.908 37.3954C63.102 36.9043 64.2959 36.4541 65.4481 36.0653C65.8461 35.9221 66.2441 35.7993 66.6211 35.6765C66.7887 36.4336 66.9353 37.1907 67.0819 37.9888C67.2495 38.9096 67.3752 39.8508 67.5009 40.8125C66.6002 40.26 65.6785 39.7076 64.7568 39.1756ZM49.3186 38.0911C49.4652 37.2521 49.6119 36.4541 49.8004 35.6765C50.5755 35.9221 51.3505 36.1676 52.1465 36.4746C53.0053 36.7815 53.8851 37.1294 54.7859 37.4977C53.8013 38.0092 52.7959 38.5412 51.8113 39.0937C51.7695 39.1142 51.7276 39.1346 51.6857 39.1756C50.743 39.7076 49.8213 40.26 48.9206 40.8125C49.0463 39.8713 49.172 38.9709 49.3186 38.0911ZM53.2777 58.2257C52.5654 57.8369 51.8742 57.4277 51.2039 57.0184C50.2822 56.466 49.4024 55.9135 48.5436 55.3406C48.4179 53.6013 48.355 51.7802 48.355 49.8977C48.355 48.9155 48.376 47.9538 48.4179 47.0125C48.4598 46.1326 48.5017 45.2937 48.5645 44.4548C50.0518 43.4726 51.6228 42.5109 53.2777 41.5696C53.9061 41.2013 54.5554 40.8534 55.1839 40.526C56.1893 39.994 57.1948 39.5029 58.2003 39.0119C59.8132 39.769 61.4471 40.6284 63.1229 41.5696C63.8351 41.9789 64.5264 42.3676 65.1967 42.7769C66.1184 43.3293 66.9982 43.8818 67.857 44.4548C67.9827 46.194 68.0455 48.0152 68.0455 49.8977C68.0455 50.8798 68.0246 51.8416 67.9827 52.7828C67.9408 53.6422 67.8989 54.5016 67.836 55.3406C66.3488 56.3227 64.7777 57.2844 63.1229 58.2257C62.683 58.4712 62.2641 58.7168 61.8242 58.9419C60.714 59.5557 59.6037 60.1082 58.5145 60.6402C58.4098 60.6811 58.305 60.7425 58.2003 60.7835C56.5664 60.0059 54.9115 59.1465 53.2777 58.2257ZM42.9297 51.2072C42.385 50.7775 41.8823 50.3274 41.3796 49.8977C42.0708 49.3043 42.783 48.6904 43.5372 48.097C44.1656 47.6059 44.8149 47.0944 45.5062 46.6033C45.4643 47.4218 45.4434 48.2607 45.4434 49.0996C45.4434 49.3656 45.4434 49.6317 45.4434 49.8977C45.4434 51.0231 45.4643 52.1076 45.5062 53.192C44.6055 52.5373 43.7257 51.8825 42.9297 51.2072ZM70.9781 50.7161C70.9781 50.4501 70.9781 50.1841 70.9781 49.8977C70.9781 48.7722 70.9572 47.6878 70.9153 46.6033C71.816 47.2581 72.6749 47.9333 73.4918 48.5881C74.0155 49.0178 74.5392 49.468 75.021 49.8977C74.4763 50.3683 73.9108 50.8594 73.3242 51.33C73.2405 51.3914 73.1567 51.4732 73.0729 51.5346C72.3816 52.0871 71.6485 52.66 70.8944 53.2125C70.9363 52.394 70.9781 51.5551 70.9781 50.7161ZM49.3396 61.8066C49.172 60.8858 49.0463 59.9445 48.9206 58.9828C49.8213 59.5353 50.7221 60.0673 51.6647 60.5993C51.7066 60.6402 51.7695 60.6607 51.8113 60.6811C52.7959 61.2336 53.7804 61.7656 54.7859 62.2772C54.7859 62.2772 54.7649 62.2772 54.7649 62.2976C53.7176 62.7273 52.6911 63.1161 51.6857 63.4844C51.539 63.5458 51.3924 63.5868 51.2458 63.6481C50.764 63.8118 50.2822 63.9755 49.8004 64.1188C49.6328 63.3821 49.4862 62.6046 49.3396 61.8066ZM64.275 63.3207C63.3952 62.9934 62.5154 62.666 61.6147 62.2976C61.7404 62.2363 61.8661 62.1749 61.9917 62.1135C62.8506 61.6633 63.7094 61.1927 64.5892 60.7221C64.8406 60.5788 65.0919 60.4356 65.3224 60.2924C66.0555 59.8627 66.7677 59.433 67.4799 59.0033C67.3543 59.924 67.2286 60.8448 67.0819 61.7042C66.9353 62.5432 66.7677 63.3412 66.6002 64.1392C65.8461 63.8732 65.071 63.6072 64.275 63.3207ZM54.4298 49.8977C54.4298 47.8719 56.1265 46.2145 58.2003 46.2145C60.2741 46.2145 61.9708 47.8719 61.9708 49.8977C61.9708 51.9234 60.2741 53.5808 58.2003 53.5808C56.1265 53.5808 54.4298 51.9234 54.4298 49.8977Z" fill="#7543E3"/>
</svg>
